<svg width="100%" height="12" viewBox="0 0 122 12" fill="none" xmlns="http://www.w3.org/2000/svg">
<path d="M6.97496 3.36364C6.91531 2.85985 6.67335 2.46875 6.24911 2.19034C5.82487 1.91193 5.30451 1.77273 4.68803 1.77273C4.23728 1.77273 3.84286 1.84564 3.50479 1.99148C3.17004 2.13731 2.9082 2.33783 2.71928 2.59304C2.53368 2.84825 2.44087 3.13826 2.44087 3.46307C2.44087 3.73485 2.5055 3.96851 2.63477 4.16406C2.76734 4.3563 2.93638 4.51705 3.14187 4.64631C3.34736 4.77225 3.5628 4.87666 3.78817 4.95952C4.01355 5.03906 4.2207 5.10369 4.40962 5.15341L5.44371 5.43182C5.70887 5.50142 6.00385 5.59754 6.32866 5.72017C6.65678 5.8428 6.96999 6.01018 7.26829 6.2223C7.5699 6.43111 7.81848 6.69957 8.01403 7.0277C8.20958 7.35582 8.30735 7.75852 8.30735 8.2358C8.30735 8.78598 8.16318 9.28314 7.87482 9.72727C7.58978 10.1714 7.17217 10.5244 6.62198 10.7862C6.07511 11.0481 5.41057 11.179 4.62837 11.179C3.89921 11.179 3.26781 11.0613 2.7342 10.826C2.20389 10.5907 1.78628 10.2625 1.48136 9.84162C1.17975 9.42069 1.00906 8.93182 0.969283 8.375H2.24201C2.27515 8.75947 2.40442 9.07765 2.62979 9.32955C2.85849 9.57812 3.14684 9.76373 3.49485 9.88636C3.84618 10.0057 4.22402 10.0653 4.62837 10.0653C5.09902 10.0653 5.5216 9.98911 5.89613 9.83665C6.27066 9.68087 6.56729 9.46544 6.78604 9.19034C7.00479 8.91193 7.11417 8.58712 7.11417 8.21591C7.11417 7.87784 7.01971 7.60275 6.83079 7.39062C6.64187 7.1785 6.39329 7.00616 6.08505 6.87358C5.77681 6.741 5.44371 6.625 5.08576 6.52557L3.83292 6.16761C3.03746 5.93892 2.40773 5.61245 1.94371 5.18821C1.4797 4.76397 1.24769 4.20881 1.24769 3.52273C1.24769 2.95265 1.40181 2.45549 1.71005 2.03125C2.0216 1.60369 2.43922 1.27225 2.96289 1.03693C3.48988 0.798295 4.07818 0.678977 4.72781 0.678977C5.38406 0.678977 5.96739 0.796638 6.47781 1.03196C6.98822 1.26397 7.39258 1.58215 7.69087 1.98651C7.99248 2.39086 8.15157 2.8499 8.16815 3.36364H6.97496ZM20.5163 0.818182H21.7493V7.55966C21.7493 8.25568 21.5852 8.87713 21.2571 9.42401C20.9323 9.96757 20.4732 10.3968 19.88 10.7116C19.2867 11.0232 18.5907 11.179 17.7919 11.179C16.9931 11.179 16.2971 11.0232 15.7038 10.7116C15.1106 10.3968 14.6499 9.96757 14.3217 9.42401C13.9969 8.87713 13.8345 8.25568 13.8345 7.55966V0.818182H15.0675V7.46023C15.0675 7.95739 15.1768 8.39986 15.3956 8.78764C15.6143 9.17211 15.9259 9.47538 16.3303 9.69744C16.7379 9.91619 17.2251 10.0256 17.7919 10.0256C18.3587 10.0256 18.8459 9.91619 19.2536 9.69744C19.6612 9.47538 19.9728 9.17211 20.1882 8.78764C20.407 8.39986 20.5163 7.95739 20.5163 7.46023V0.818182ZM33.2797 3.36364C33.22 2.85985 32.978 2.46875 32.5538 2.19034C32.1296 1.91193 31.6092 1.77273 30.9927 1.77273C30.542 1.77273 30.1475 1.84564 29.8095 1.99148C29.4747 2.13731 29.2129 2.33783 29.024 2.59304C28.8384 2.84825 28.7456 3.13826 28.7456 3.46307C28.7456 3.73485 28.8102 3.96851 28.9395 4.16406C29.072 4.3563 29.2411 4.51705 29.4466 4.64631C29.652 4.77225 29.8675 4.87666 30.0929 4.95952C30.3182 5.03906 30.5254 5.10369 30.7143 5.15341L31.7484 5.43182C32.0136 5.50142 32.3085 5.59754 32.6333 5.72017C32.9615 5.8428 33.2747 6.01018 33.573 6.2223C33.8746 6.43111 34.1232 6.69957 34.3187 7.0277C34.5143 7.35582 34.612 7.75852 34.612 8.2358C34.612 8.78598 34.4679 9.28314 34.1795 9.72727C33.8945 10.1714 33.4769 10.5244 32.9267 10.7862C32.3798 11.0481 31.7153 11.179 30.9331 11.179C30.2039 11.179 29.5725 11.0613 29.0389 10.826C28.5086 10.5907 28.091 10.2625 27.786 9.84162C27.4844 9.42069 27.3137 8.93182 27.274 8.375H28.5467C28.5798 8.75947 28.7091 9.07765 28.9345 9.32955C29.1632 9.57812 29.4515 9.76373 29.7995 9.88636C30.1509 10.0057 30.5287 10.0653 30.9331 10.0653C31.4037 10.0653 31.8263 9.98911 32.2008 9.83665C32.5753 9.68087 32.872 9.46544 33.0907 9.19034C33.3095 8.91193 33.4189 8.58712 33.4189 8.21591C33.4189 7.87784 33.3244 7.60275 33.1355 7.39062C32.9466 7.1785 32.698 7.00616 32.3897 6.87358C32.0815 6.741 31.7484 6.625 31.3904 6.52557L30.1376 6.16761C29.3422 5.93892 28.7124 5.61245 28.2484 5.18821C27.7844 4.76397 27.5524 4.20881 27.5524 3.52273C27.5524 2.95265 27.7065 2.45549 28.0147 2.03125C28.3263 1.60369 28.7439 1.27225 29.2676 1.03693C29.7946 0.798295 30.3829 0.678977 31.0325 0.678977C31.6887 0.678977 32.2721 0.796638 32.7825 1.03196C33.2929 1.26397 33.6973 1.58215 33.9956 1.98651C34.2972 2.39086 34.4563 2.8499 34.4728 3.36364H33.2797ZM40.1392 11V0.818182H41.3722V5.35227H46.8011V0.818182H48.0341V11H46.8011V6.44602H41.3722V11H40.1392ZM55.2354 0.818182V11H54.0025V0.818182H55.2354ZM71.3695 11.1392C70.7 11.1392 70.1233 11.0166 69.6394 10.7713C69.1555 10.526 68.7826 10.1896 68.5208 9.76207C68.2589 9.33452 68.128 8.84564 68.128 8.29545C68.128 7.87121 68.2175 7.49503 68.3965 7.1669C68.5788 6.83546 68.829 6.52888 69.1472 6.24716C69.4687 5.96212 69.8382 5.67708 70.2559 5.39205L71.7275 4.2983C72.0158 4.10937 72.2462 3.9072 72.4185 3.69176C72.5942 3.47633 72.682 3.1946 72.682 2.84659C72.682 2.58807 72.5676 2.33783 72.339 2.09588C72.1136 1.85393 71.8169 1.73295 71.449 1.73295C71.1905 1.73295 70.9618 1.79924 70.763 1.93182C70.5674 2.06108 70.4133 2.2268 70.3006 2.42898C70.1912 2.62784 70.1365 2.83333 70.1365 3.04545C70.1365 3.28409 70.2012 3.52604 70.3304 3.77131C70.463 4.01326 70.6304 4.26184 70.8326 4.51705C71.0381 4.76894 71.2502 5.02746 71.4689 5.29261L76.1422 11H74.7303L70.8723 6.34659C70.5144 5.91572 70.1896 5.52462 69.8979 5.1733C69.6062 4.82197 69.3742 4.47562 69.2019 4.13423C69.0295 3.79285 68.9434 3.4233 68.9434 3.02557C68.9434 2.56818 69.0444 2.16714 69.2466 1.82244C69.4521 1.47443 69.7388 1.20431 70.1067 1.01207C70.4779 0.816525 70.9121 0.71875 71.4093 0.71875C71.9197 0.71875 72.3588 0.818182 72.7267 1.01705C73.0946 1.21259 73.378 1.47277 73.5769 1.79758C73.7757 2.11908 73.8752 2.46875 73.8752 2.84659C73.8752 3.33381 73.7542 3.75639 73.5123 4.11435C73.2703 4.4723 72.9405 4.8054 72.5229 5.11364L70.4945 6.625C70.0371 6.96307 69.7272 7.29119 69.5648 7.60938C69.4024 7.92756 69.3212 8.15625 69.3212 8.29545C69.3212 8.61364 69.4041 8.91027 69.5698 9.18537C69.7355 9.46046 69.9692 9.68253 70.2708 9.85156C70.5724 10.0206 70.9254 10.1051 71.3297 10.1051C71.7142 10.1051 72.0887 10.0239 72.4533 9.86151C72.8179 9.69579 73.1477 9.45715 73.4426 9.1456C73.7409 8.83404 73.9763 8.45952 74.1486 8.02202C74.3243 7.58452 74.4121 7.09233 74.4121 6.54545H75.5456C75.5456 7.22159 75.4677 7.77344 75.312 8.20099C75.1562 8.62855 74.9805 8.9633 74.785 9.20526C74.5894 9.44721 74.432 9.62784 74.3127 9.74716C74.2729 9.79687 74.2364 9.84659 74.2033 9.89631C74.1702 9.94602 74.1337 9.99574 74.0939 10.0455C73.7658 10.4134 73.3515 10.6884 72.851 10.8707C72.3506 11.0497 71.8567 11.1392 71.3695 11.1392ZM88.5376 11V0.818182H92.0973C92.8066 0.818182 93.3916 0.940814 93.8523 1.18608C94.313 1.42803 94.656 1.7545 94.8814 2.16548C95.1068 2.57315 95.2195 3.02557 95.2195 3.52273C95.2195 3.96023 95.1416 4.3215 94.9858 4.60653C94.8333 4.89157 94.6312 5.11695 94.3793 5.28267C94.1307 5.44839 93.8606 5.57102 93.5689 5.65057V5.75C93.8804 5.76989 94.1937 5.87926 94.5085 6.07812C94.8234 6.27699 95.0869 6.56203 95.299 6.93324C95.5111 7.30445 95.6172 7.75852 95.6172 8.29545C95.6172 8.80587 95.5012 9.26491 95.2692 9.67259C95.0372 10.0803 94.6709 10.4034 94.1705 10.642C93.67 10.8807 93.0187 11 92.2166 11H88.5376ZM89.7706 9.90625H92.2166C93.022 9.90625 93.5938 9.75047 93.9318 9.43892C94.2732 9.12405 94.4439 8.7429 94.4439 8.29545C94.4439 7.95076 94.3561 7.63258 94.1804 7.34091C94.0047 7.04593 93.7545 6.81061 93.4297 6.63494C93.1049 6.45597 92.7204 6.36648 92.2763 6.36648H89.7706V9.90625ZM89.7706 5.29261H92.0575C92.4287 5.29261 92.7635 5.2197 93.0618 5.07386C93.3634 4.92803 93.602 4.72254 93.7777 4.45739C93.9567 4.19223 94.0462 3.88068 94.0462 3.52273C94.0462 3.07528 93.8904 2.69579 93.5788 2.38423C93.2673 2.06937 92.7734 1.91193 92.0973 1.91193H89.7706V5.29261ZM101.561 11H100.268L104.007 0.818182H105.279L109.018 11H107.725L104.683 2.42898H104.603L101.561 11ZM102.038 7.02273H107.248V8.11648H102.038V7.02273ZM114.104 11V0.818182H117.544C118.34 0.818182 118.993 0.954072 119.503 1.22585C120.014 1.49432 120.391 1.86387 120.637 2.33452C120.882 2.80516 121.005 3.34044 121.005 3.94034C121.005 4.54025 120.882 5.07221 120.637 5.53622C120.391 6.00024 120.015 6.36482 119.508 6.62997C119.001 6.89181 118.353 7.02273 117.564 7.02273H114.78V5.90909H117.525C118.068 5.90909 118.506 5.82955 118.837 5.67045C119.172 5.51136 119.414 5.28598 119.563 4.99432C119.715 4.69934 119.792 4.34801 119.792 3.94034C119.792 3.53267 119.715 3.17637 119.563 2.87145C119.41 2.56652 119.167 2.3312 118.832 2.16548C118.497 1.99645 118.055 1.91193 117.505 1.91193H115.337V11H114.104ZM118.897 6.42614L121.402 11H119.971L117.505 6.42614H118.897Z" fill="white"/>
</svg>
