<svg width="55" height="55" viewBox="0 0 55 55" fill="none" xmlns="http://www.w3.org/2000/svg">
<path d="M16.5153 55C15.0014 55 13.7054 54.4615 12.6273 53.3844C11.5492 52.3073 11.0102 51.0125 11.0102 49.5C11.0102 47.9875 11.5492 46.6927 12.6273 45.6156C13.7054 44.5385 15.0014 44 16.5153 44C18.0292 44 19.3251 44.5385 20.4032 45.6156C21.4813 46.6927 22.0203 47.9875 22.0203 49.5C22.0203 51.0125 21.4813 52.3073 20.4032 53.3844C19.3251 54.4615 18.0292 55 16.5153 55ZM44.0407 55C42.5268 55 41.2308 54.4615 40.1527 53.3844C39.0746 52.3073 38.5356 51.0125 38.5356 49.5C38.5356 47.9875 39.0746 46.6927 40.1527 45.6156C41.2308 44.5385 42.5268 44 44.0407 44C45.5546 44 46.8506 44.5385 47.9287 45.6156C49.0067 46.6927 49.5458 47.9875 49.5458 49.5C49.5458 51.0125 49.0067 52.3073 47.9287 53.3844C46.8506 54.4615 45.5546 55 44.0407 55ZM14.1756 11L20.7817 24.75H40.0495L47.619 11H14.1756ZM11.5607 5.5H52.1607C53.2158 5.5 54.0187 5.96979 54.5692 6.90937C55.1197 7.84896 55.1426 8.8 54.638 9.7625L44.8665 27.3625C44.3618 28.2792 43.6852 28.9896 42.8365 29.4937C41.9878 29.9979 41.0588 30.25 40.0495 30.25H19.5431L16.5153 35.75H49.5458V41.25H16.5153C14.4509 41.25 12.8911 40.3448 11.8359 38.5344C10.7808 36.724 10.7349 34.925 11.6983 33.1375L15.4142 26.4L5.50509 5.5H0V0H8.94577L11.5607 5.5Z" fill="white"/>
</svg>
