<svg width="68" height="51" viewBox="0 0 68 51" fill="none" xmlns="http://www.w3.org/2000/svg">
<path d="M0.666626 50.3333V45.3333H67.3333V50.3333H0.666626ZM3.16663 40.3333V38.9167C3.16663 30.3056 5.62496 23.3611 10.5416 18.0833C15.4583 12.8056 21.6111 9.3889 29 7.83334V5.33334C29 3.8889 29.4722 2.69445 30.4166 1.75001C31.3611 0.805566 32.5555 0.333344 34 0.333344C35.4444 0.333344 36.6388 0.805566 37.5833 1.75001C38.5277 2.69445 39 3.8889 39 5.33334V7.83334C46.3888 9.3889 52.5416 12.8056 57.4583 18.0833C62.375 23.3611 64.8333 30.3056 64.8333 38.9167V40.3333H3.16663ZM8.41663 35.3333H59.5833C58.8055 28.2222 55.9583 22.6528 51.0416 18.625C46.125 14.5972 40.4166 12.5833 33.9166 12.5833C27.4166 12.5833 21.7361 14.5972 16.875 18.625C12.0138 22.6528 9.1944 28.2222 8.41663 35.3333Z" fill="#E94B4B"/>
</svg>
