<svg width="64" height="68" viewBox="0 0 64 68" fill="none" xmlns="http://www.w3.org/2000/svg">
<path d="M0 67.3333V62.3333H6.5V50.5833C4.55556 50.0278 2.98611 48.9583 1.79167 47.375C0.597222 45.7917 0 43.9444 0 41.8333V14H18V41.8333C18 43.7778 17.4028 45.5833 16.2083 47.25C15.0139 48.9167 13.4444 50.0278 11.5 50.5833V62.3333H18V67.3333H0ZM5 32.4167H13V19H5V32.4167ZM9 45.8333C10.0556 45.8333 10.9861 45.4305 11.7917 44.625C12.5972 43.8194 13 42.8889 13 41.8333V37.4167H5V41.8333C5 42.8889 5.40278 43.8194 6.20833 44.625C7.01389 45.4305 7.94444 45.8333 9 45.8333ZM33.3333 67.3333C32 67.3333 30.8333 66.8333 29.8333 65.8333C28.8333 64.8333 28.3333 63.6667 28.3333 62.3333V28.3333C28.3333 27.2222 28.6389 26.3333 29.25 25.6667C29.8611 25 30.7222 24.4167 31.8333 23.9167L35 22.5C36.3333 21.8889 37.3056 21.1389 37.9167 20.25C38.5278 19.3611 38.8333 18.2778 38.8333 17V3.58332C38.8333 2.69443 39.0972 1.9861 39.625 1.45832C40.1528 0.930545 40.8611 0.666656 41.75 0.666656H49.5833C50.4722 0.666656 51.1806 0.930545 51.7083 1.45832C52.2361 1.9861 52.5 2.69443 52.5 3.58332V17C52.5 18.2778 52.875 19.3611 53.625 20.25C54.375 21.1389 55.4167 21.8889 56.75 22.5L59.9167 23.9167C60.9722 24.3611 61.8056 24.9305 62.4167 25.625C63.0278 26.3194 63.3333 27.2222 63.3333 28.3333V62.3333C63.3333 63.6667 62.8333 64.8333 61.8333 65.8333C60.8333 66.8333 59.6667 67.3333 58.3333 67.3333H33.3333ZM43.8333 9.33332H47.5V5.66666H43.8333V9.33332ZM33.3333 35.25H58.3333V28.3333L54.8333 27C52.6111 26.1667 50.8333 24.8055 49.5 22.9167C48.1667 21.0278 47.5 18.9444 47.5 16.6667V14.3333H43.8333V16.6667C43.8333 18.9444 43.2083 20.9444 41.9583 22.6667C40.7083 24.3889 39.0278 25.7222 36.9167 26.6667L33.3333 28.3333V35.25ZM33.3333 62.3333H58.3333V53.75H33.3333V62.3333ZM33.3333 48.75H58.3333V40.25H33.3333V48.75Z" fill="#E94B4B"/>
</svg>
