<svg width="60" height="68" viewBox="0 0 60 68" fill="none" xmlns="http://www.w3.org/2000/svg">
<path d="M3.33333 67.3333C2.38889 67.3333 1.59722 67.0139 0.958333 66.375C0.319444 65.7361 0 64.9444 0 64V45.75C0 44.375 0.489723 43.1978 1.46917 42.2183C2.44806 41.2394 3.625 40.75 5 40.75H7.25V25.5833C7.25 24.2083 7.73972 23.0311 8.71917 22.0517C9.69806 21.0728 10.875 20.5833 12.25 20.5833H27.5V15.25C26.3889 14.4722 25.5417 13.6242 24.9583 12.7058C24.375 11.7869 24.0833 10.6792 24.0833 9.3825C24.0833 8.57194 24.2361 7.79166 24.5417 7.04166C24.8472 6.29166 25.2778 5.63889 25.8333 5.08333L30 0.666664L34.1667 5.08333C34.7222 5.63889 35.1667 6.29166 35.5 7.04166C35.8333 7.79166 36 8.57194 36 9.3825C36 10.6792 35.6944 11.7869 35.0833 12.7058C34.4722 13.6242 33.6111 14.4722 32.5 15.25V20.5833H47.75C49.125 20.5833 50.3022 21.0728 51.2817 22.0517C52.2606 23.0311 52.75 24.2083 52.75 25.5833V40.75H55C56.375 40.75 57.5522 41.2394 58.5317 42.2183C59.5106 43.1978 60 44.375 60 45.75V64C60 64.9444 59.6806 65.7361 59.0417 66.375C58.4028 67.0139 57.6111 67.3333 56.6667 67.3333H3.33333ZM12.25 40.75H47.75V25.5833H12.25V40.75ZM5 62.3333H55V45.75H5V62.3333Z" fill="#E94B4B"/>
</svg>
