<svg width="80" height="80" viewBox="0 0 80 80" fill="none" xmlns="http://www.w3.org/2000/svg">
<path d="M31.3333 68.3334H48.5833V63.6667L51.5833 62.4167C55.6944 60.6945 59.0694 58.4584 61.7083 55.7084C64.3472 52.9584 66.2222 49.9445 67.3333 46.6667H12.6666C13.7777 49.9445 15.6666 52.9722 18.3333 55.75C21 58.5278 24.3333 60.75 28.3333 62.4167L31.3333 63.6667V68.3334ZM26.3333 73.3334V66.8334C20.5 64.5 15.8611 61.1111 12.4166 56.6667C8.97218 52.2222 7.05551 47.2222 6.66663 41.6667H13.3333V13.3334L73.3333 6.66669V10.8334L34.1666 15.1667V22.4167H73.3333V26.5834H34.1666V41.6667H73.3333C73 47.2222 71.0694 52.2222 67.5416 56.6667C64.0138 61.1111 59.3611 64.5 53.5833 66.8334V73.3334H26.3333ZM25.8333 22.4167H30V15.5834L25.8333 16.0834V22.4167ZM17.5 22.4167H21.6666V16.5L17.5 17V22.4167ZM25.8333 41.6667H30V26.5834H25.8333V41.6667ZM17.5 41.6667H21.6666V26.5834H17.5V41.6667Z" fill="#E94B4B"/>
</svg>
    